<svg width="34" height="34" viewBox="0 0 34 34" fill="none" xmlns="http://www.w3.org/2000/svg">
<rect width="34" height="34" rx="3" fill="#C92A2A"/>
<path d="M17.876 15.348C17.876 16.028 17.7 16.652 17.348 17.22C16.996 17.788 16.484 18.252 15.812 18.612C15.14 18.972 14.34 19.184 13.412 19.248L12.896 22.14C12.696 23.252 12.152 23.808 11.264 23.808C10.776 23.808 10.324 23.664 9.908 23.376C9.5 23.088 9.172 22.648 8.924 22.056C8.676 21.464 8.552 20.736 8.552 19.872C8.552 18.248 8.812 16.872 9.332 15.744C9.86 14.608 10.564 13.76 11.444 13.2C12.332 12.632 13.308 12.348 14.372 12.348C15.124 12.348 15.76 12.48 16.28 12.744C16.808 13.008 17.204 13.368 17.468 13.824C17.74 14.272 17.876 14.78 17.876 15.348ZM13.628 18.012C15.268 17.804 16.088 16.952 16.088 15.456C16.088 14.928 15.912 14.5 15.56 14.172C15.216 13.836 14.68 13.668 13.952 13.668C13.128 13.668 12.408 13.928 11.792 14.448C11.184 14.968 10.712 15.692 10.376 16.62C10.048 17.54 9.884 18.592 9.884 19.776C9.884 20.272 9.932 20.712 10.028 21.096C10.132 21.48 10.26 21.78 10.412 21.996C10.572 22.204 10.724 22.308 10.868 22.308C11.068 22.308 11.22 22.032 11.324 21.48L11.72 19.212C11.408 19.164 11.272 19.144 11.312 19.152C11.072 19.112 10.916 19.04 10.844 18.936C10.772 18.824 10.736 18.684 10.736 18.516C10.736 18.34 10.784 18.2 10.88 18.096C10.984 17.992 11.124 17.94 11.3 17.94C11.38 17.94 11.44 17.944 11.48 17.952C11.672 17.984 11.82 18.004 11.924 18.012C12.028 17.388 12.176 16.552 12.368 15.504C12.416 15.232 12.524 15.04 12.692 14.928C12.868 14.808 13.072 14.748 13.304 14.748C13.568 14.748 13.756 14.8 13.868 14.904C13.988 15 14.048 15.156 14.048 15.372C14.048 15.5 14.04 15.604 14.024 15.684L13.628 18.012ZM21.5803 22.596C20.5163 22.596 19.6643 22.396 19.0243 21.996C18.3843 21.588 18.0643 20.968 18.0643 20.136C18.0643 19.696 18.1403 19.36 18.2923 19.128C18.4443 18.896 18.6683 18.78 18.9643 18.78C19.1803 18.78 19.3563 18.836 19.4923 18.948C19.6283 19.06 19.6963 19.204 19.6963 19.38C19.6963 19.54 19.6843 19.68 19.6603 19.8C19.6603 19.832 19.6523 19.888 19.6363 19.968C19.6283 20.048 19.6243 20.132 19.6243 20.22C19.6243 20.58 19.8043 20.848 20.1643 21.024C20.5323 21.2 21.0443 21.288 21.7003 21.288C22.3803 21.288 22.9123 21.168 23.2963 20.928C23.6803 20.68 23.8723 20.336 23.8723 19.896C23.8723 19.624 23.7843 19.392 23.6083 19.2C23.4323 19 23.2123 18.836 22.9483 18.708C22.6843 18.572 22.3123 18.408 21.8323 18.216C21.2163 17.976 20.7123 17.748 20.3203 17.532C19.9363 17.316 19.6043 17.024 19.3243 16.656C19.0523 16.28 18.9163 15.816 18.9163 15.264C18.9163 14.688 19.0683 14.176 19.3723 13.728C19.6843 13.28 20.1283 12.932 20.7043 12.684C21.2883 12.436 21.9723 12.312 22.7563 12.312C23.3403 12.312 23.8763 12.4 24.3643 12.576C24.8523 12.744 25.2403 13.004 25.5283 13.356C25.8243 13.708 25.9723 14.14 25.9723 14.652C25.9723 15.156 25.8963 15.536 25.7443 15.792C25.5923 16.048 25.3683 16.176 25.0723 16.176C24.8643 16.176 24.6883 16.112 24.5443 15.984C24.4083 15.856 24.3403 15.704 24.3403 15.528C24.3403 15.376 24.3523 15.236 24.3763 15.108C24.4003 14.868 24.4123 14.716 24.4123 14.652C24.4123 14.316 24.2483 14.06 23.9203 13.884C23.5923 13.708 23.1843 13.62 22.6963 13.62C22.0083 13.62 21.4803 13.748 21.1123 14.004C20.7523 14.252 20.5723 14.604 20.5723 15.06C20.5723 15.364 20.6643 15.624 20.8483 15.84C21.0403 16.056 21.2763 16.236 21.5563 16.38C21.8363 16.524 22.2283 16.696 22.7323 16.896C23.3403 17.144 23.8283 17.368 24.1963 17.568C24.5643 17.768 24.8763 18.04 25.1323 18.384C25.3963 18.728 25.5283 19.152 25.5283 19.656C25.5283 20.6 25.1683 21.328 24.4483 21.84C23.7363 22.344 22.7803 22.596 21.5803 22.596Z" fill="white"/>
</svg>
